<svg width="128" height="128"><g><rect width="128" height="128" fill="#13b"></rect><path d="M 51.138631051302966 101.91200273557382 C 78.34593004191069 120.55904649900384 71.07727814498372 48.15390780029057 64.04595622035046 35.632989480117516 C 33.32368985246404 -19.075213604037145 -1.3787909966950451 65.91818109199181 51.138631051302966 101.91200273557382" fill="rgb(91,117,214)"></path><path d="M 38.417824798744746 103.48022179124084 C 12.78289505158114 145.94633269153843 104.27995587811394 85.7267827855706 102.00314857887486 60.40880900066685 C 96.85759656155132 3.190549411023653 50.5468757263144 83.3875737174726 38.417824798744746 103.48022179124084" fill="rgb(119,106,216)"></path><path d="M 125.04857280779525 89.20698120998506 C 170.42500893248135 102.77829009812295 143.6811176605296 55.9030638783164 123.26551264547128 28.164407732352174 C 88.43116326664267 -19.164977743856234 91.22119845345705 79.0897973708681 125.04857280779525 89.20698120998506" fill="rgb(92,81,239)"></path><path d="M 50.78480275421998 92.03473291919553 C 51.36790772648379 76.32085979529516 30.294816684482488 -54.582189231181935 33.61431358921132 17.17877589616149 C 34.90437823779613 45.067424964408005 48.15769015905486 162.8317865652217 50.78480275421998 92.03473291919553" fill="rgb(114,102,207)"></path></g></svg>