<svg width="128" height="128"><g><rect width="128" height="128" fill="#367"></rect><path d="M 106.1796817321384 108.44517841081446 C 123.92155747990677 116.65060568311098 106.91758297647102 99.29140175458843 93.83977356658093 77.97593188709237 C 77.58364102440551 51.48012570851964 79.962378230319 96.31995669140507 106.1796817321384 108.44517841081446" fill="rgb(27,70,172)"></path><path d="M 68.93916016917284 86.48012557533784 C 98.70340152886925 95.99500572005802 81.26650174038474 72.61261746459714 80.6892630055826 55.99107627789573 C 79.86055023930084 32.12836134519256 45.841538414282454 79.09639622138043 68.93916016917284 86.48012557533784" fill="rgb(64,50,138)"></path><path d="M 92.13960514902722 41.25742559342219 C 104.56130250720352 21.595849123094034 111.22953468910745 25.000501966345674 92.99585401303624 15.671749173149784 C 73.31439425679133 5.602280702300002 83.58616380989127 54.79616640513507 92.13960514902722 41.25742559342219" fill="rgb(63,13,159)"></path><path d="M 20.51362142455589 113.65462191923537 C 88.0236089655605 93.44813119434676 101.02706442765032 124.4682347759963 88.36930250338148 77.68454344658383 C 80.44344344438538 48.390190625366586 -0.08993474482567265 119.82149561897438 20.51362142455589 113.65462191923537" fill="rgb(56,34,142)"></path></g></svg>