<svg width="128" height="128"><g><rect width="128" height="128" fill="#381"></rect><path d="M 13.10095180947819 62.79730599320939 C -17.47996812659348 51.5624045788729 7.385534053542887 96.44146890255857 27.346660147957436 115.39490586074727 C 39.94015960214684 127.35265297676554 62.60765616762767 80.98521348504529 13.10095180947819 62.79730599320939" fill="rgb(126,37,176)"></path><path d="M 104.7542985025634 95.75174437839654 C 101.26791835245206 82.88802720074064 52.051024489794614 84.52546967786174 63.39991782672503 112.00604097841531 C 77.59645622654942 146.38199060937205 114.83749016591442 132.95575547893668 104.7542985025634 95.75174437839654" fill="rgb(134,19,140)"></path><path d="M 43.39692655092897 98.39787376300066 C 90.02906007114777 147.5822396862597 47.99895841039648 18.096702233643637 28.145995817690135 27.309033743689753 C 0.8765498969460239 39.9628215471011 9.324891440348878 62.46103544737222 43.39692655092897 98.39787376300066" fill="rgb(135,48,132)"></path><path d="M 46.35084085547058 27.978632069780044 C 52.917337859901245 40.62895205611473 73.28101893971393 20.7390279592854 60.97439870110651 6.9664556966543945 C 47.77970950307255 -7.799971392140099 39.095389742490475 14.001045822123732 46.35084085547058 27.978632069780044" fill="rgb(111,29,146)"></path></g></svg>