<svg width="200px" height="200px" version="1.1" id="Capa_1" xmlns="http://www.w3.org/2000/svg"
    xmlns:xlink="http://www.w3.org/1999/xlink" viewBox="-51.2 -51.2 614.40 614.40"
    xml:space="preserve" fill="#000000" transform="matrix(1, 0, 0, 1, 0, 0)rotate(0)">
    <g id="SVGRepo_bgCarrier" stroke-width="0"></g>
    <g id="SVGRepo_tracerCarrier" stroke-linecap="round" stroke-linejoin="round"></g>
    <g id="SVGRepo_iconCarrier">
        <g>
            <path style="fill:#232024;"
                d="M159.766,512c-12.385,0-22.423-10.038-22.423-22.423v-29.896c0-12.382,10.038-22.423,22.423-22.423 c12.382,0,22.423,10.041,22.423,22.423v29.897C182.189,501.962,172.148,512,159.766,512z">
            </path>
            <path style="fill:#232024;"
                d="M352.234,512c-12.382,0-22.423-10.038-22.423-22.423v-29.896c0-12.382,10.041-22.423,22.423-22.423 c12.385,0,22.423,10.041,22.423,22.423v29.897C374.657,501.962,364.619,512,352.234,512z">
            </path>
        </g>
        <path style="fill:#9E8CEC;"
            d="M270.018,257.876h-156.96c-27.821,0-50.457-22.634-50.457-50.454 c0-27.822,22.637-50.457,50.457-50.457c12.385,0,22.423-10.039,22.423-22.423c0-12.383-10.038-22.423-22.423-22.423 c-52.55,0-95.303,42.753-95.303,95.303c0,52.549,42.753,95.3,95.303,95.3h74.743v67.268c0,12.385,10.041,22.423,22.423,22.423 c12.385,0,22.423-10.038,22.423-22.423v-67.269h37.371c12.385,0,22.423-10.038,22.423-22.423 C292.44,267.915,282.403,257.876,270.018,257.876z">
        </path>
        <path style="fill:#6A56CF;"
            d="M270.018,257.876h-114.92v44.846h32.703v67.268c0,12.385,10.041,22.423,22.423,22.423 c12.385,0,22.423-10.038,22.423-22.423v-67.269h37.371c12.385,0,22.423-10.038,22.423-22.423 C292.44,267.915,282.403,257.876,270.018,257.876z">
        </path>
        <path style="fill:#F4C514;"
            d="M434.519,225.541l-7.542-2.695V46.239l7.542-2.694c11.664-4.165,17.739-16.996,13.576-28.658 c-4.163-11.664-17.001-17.738-28.659-13.575L105.517,113.427c-8.923,3.186-14.881,11.64-14.881,21.115 c0,9.476,5.958,17.931,14.881,21.118l313.919,112.115c2.493,0.889,5.039,1.311,7.542,1.311c9.208,0,17.843-5.716,21.118-14.887 C452.258,242.536,446.181,229.705,434.519,225.541z">
        </path>
        <g>
            <path style="fill:#E9D535;"
                d="M397.08,347.567H114.921c-12.385,0-22.423,10.039-22.423,22.423v89.691 c0,12.385,10.038,22.423,22.423,22.423H397.08c12.385,0,22.423-10.038,22.423-22.423V369.99 C419.503,357.606,409.465,347.567,397.08,347.567z">
            </path>
            <path style="fill:#E9D535;"
                d="M479.509,46.939C463.17,6.102,439.583,0.005,426.976,0.005c-12.608,0-36.195,6.097-52.528,46.934 c-9.506,23.761-14.741,54.873-14.741,87.603c0,32.731,5.235,63.844,14.741,87.604c16.333,40.833,39.92,46.932,52.528,46.932 c12.608,0,36.195-6.099,52.534-46.932c9.5-23.761,14.735-54.872,14.735-87.604S489.01,70.699,479.509,46.939z">
            </path>
        </g>
        <path style="fill:#DD9520;"
            d="M397.08,347.567H256v134.537h141.08c12.385,0,22.423-10.038,22.423-22.423V369.99 C419.503,357.606,409.465,347.567,397.08,347.567z">
        </path>
    </g>
</svg>
